<svg xmlns="http://www.w3.org/2000/svg" width="1230.667" height="304" version="1.0"
    viewBox="0 0 923 228">
    <path
        class="diva-logo-text"
        d="M545.1 94.3c-19.4 51.2-36.9 96.4-38.8 100.3-6.4 13.4-12.2 18-23.8 19.1l-6.5.6v8.2l33.3-.1 33.2-.1.3-4 .3-4-7.1-.5c-5.7-.4-7.6-1-9.7-2.9-2.3-2.2-2.5-2.9-2-9.4.3-5.4 2.6-13.6 10.4-36.5l10-29.5 34.6-.3c32.3-.2 34.7-.1 35.6 1.6 2.6 5 23.4 57.3 24.7 62.2 2.6 10.1-1.2 13.9-14.3 14.8l-7.3.5v8.2h82v-8.2l-6.3-.5c-3.4-.3-8.1-1.5-10.3-2.6-5.9-3-12.3-10.6-17-20.3-2.2-4.6-21.1-49.2-42-99.1L586.5 1h-6l-35.4 93.3zm48.9-9.8 15.9 39-30.1.3c-16.6.1-30.3 0-30.5-.2-.3-.3 5.7-18.8 13.3-41.2 10.2-30.2 14-40.2 14.6-38.8.5 1 8 19.4 16.8 40.9zM2 13.6v4.1l6.5.6c10.9 1 15.5 4.8 17.5 14.1.7 3.5 1 30.8.8 86.6-.3 76.8-.4 81.7-2.2 85.7-2.5 5.9-7 8.5-15.7 9.1l-6.9.5v8.2h58.8c52.5-.1 59.8-.3 68.7-1.9 48.3-8.8 79.5-38.2 90.2-84.7 1.1-5.1 1.6-11.8 1.6-21.9 0-12.6-.4-15.8-2.7-24.5-10-36.9-35.1-64.1-69.1-74.8-15.4-4.8-19.7-5.1-85.7-5.2H2v4.1zm111.1 7.9c39.4 6.9 66.7 33.5 77.1 75.3 3.2 12.7 3.2 39.8 0 52.7-8.4 33.7-31.6 53.9-68.9 60-13.8 2.3-47.3 1.7-54.5-.9-7.1-2.6-11.3-7.9-12.7-15.8-.7-4.4-1.1-32.2-1.1-88.6V22.1l5.3-.5c10.6-1.2 12.5-1.3 29.3-1.4 11.3-.1 20 .3 25.5 1.3zM292 13.6v4.1l6.6.6c7.5.7 13.6 3.8 17 8.4 4 5.4 7.9 14.5 46.5 107.5l38.4 92.8h5.6c5.1 0 5.7-.2 6.8-2.8.7-1.5 18.8-43.4 40.3-93.2 21.4-49.8 40.1-92.7 41.6-95.4 3.3-6.1 9.6-13.2 13.3-15.2 1.6-.8 5.9-1.8 9.4-2.1l6.5-.6V9.5h-63v8.2l5.7.6c3.2.3 6.8 1.4 8.2 2.5 3.8 2.8 3.9 10.3.3 20.7-4.3 12.7-61.6 147.4-62.4 146.7-.6-.7-53.7-131.2-58.1-143.2-6.6-17.6-3.1-25.1 12.4-26.6l7-.7-.3-3.9-.3-4-40.8-.1-40.7-.2v4.1zM265.1 44.8c-10.8 5.4-10.5 20.9.4 26.2 5.2 2.5 7.8 2.5 13.1-.1 5.4-2.6 8.9-9 8.1-14.9-1.4-10.4-12.3-16-21.6-11.2zM276 88.6c-1.9 1.4-11.3 6.4-20.7 11.1l-17.3 8.5v4c0 3.7.2 4 2.3 3.3 7.9-2.5 11.9-2.9 14.5-1.4 5.4 3 5.7 4.6 6 39.4.4 35.5-.5 48.7-3.8 54-2.5 4-8.2 6.5-15 6.5h-5v8.5h70V214h-5.2c-6.8-.1-13.2-2.9-15.2-6.8-3.1-5.9-3.6-15.7-3.6-68.5 0-49.5-.1-52.7-1.7-52.7-1 .1-3.4 1.2-5.3 2.6z" />
    <path class="diva-logo-star"
        d="M817.7 6.3c-1.9 16.1-6.8 34.3-14 52.6l-4.1 10.3-8.5-.6c-14.7-1.2-41.2-8.1-57.4-14.9l-3.7-1.6-2.5 3.9c-1.4 2.2-2.5 4.4-2.5 4.9s3.1 3.4 6.9 6.4c16.3 13.2 39.3 37.7 40.7 43.5 1.5 5.7-20.8 30.5-41.6 46.4l-6.8 5.2 2.4 4.9c1.5 2.8 3 4.7 3.7 4.4 7.3-3.2 18.2-7 27.2-9.5 12.1-3.5 38.8-8.4 40.8-7.6 1.6.6 8.8 18.7 12.1 30.4 2.2 7.4 5.2 21.6 7 33.1.6 3.4.9 3.7 5.3 4.3 2.6.3 5 .3 5.4-.1.3-.5 1.6-6.4 2.9-13.3 3.7-20.8 13-49.2 17.4-53.6 2.7-2.8 37.3 4.2 57.5 11.7 5.8 2.1 11.1 3.9 11.7 3.9.5 0 2-2 3.1-4.4l2.2-4.4-7.7-6c-4.2-3.3-11.4-9.4-16-13.7-8.7-8.2-25.2-27.9-25.2-30.2 0-4.5 25.3-32.2 40.5-44.3 4.4-3.5 7.9-6.8 7.7-7.4-.4-1.8-3.5-8.6-3.8-8.6-.2 0-5.2 1.8-11.1 4.1-18.7 7-47.6 13.6-56.1 12.7-3.1-.3-3.6-.8-6.3-7.3C837.5 44 831 20 829.8 5l-.3-3.5-5.6-.3-5.6-.3-.6 5.4zm16.5 67.9c6.1 1.3 15.4 7.3 19.6 12.6 1.8 2.2 4.5 6.7 5.9 9.9 2.4 5 2.7 7.1 2.8 15.3 0 8.2-.4 10.3-2.6 15-7.7 16.2-22 24.9-39.4 23.8-10-.7-18.1-4.5-24.9-11.9-6.6-7.1-9.6-13.1-10.6-21.2-1.7-14.3 2-24.8 12-34 11.2-10.4 21.4-13 37.2-9.5z" />
</svg>